<?xml version="1.0" encoding="UTF-8" standalone="no"?>
<!-- Created with Inkscape (http://www.inkscape.org/) -->

<svg xmlns:dc="http://purl.org/dc/elements/1.1/" xmlns:cc="http://creativecommons.org/ns#" xmlns:rdf="http://www.w3.org/1999/02/22-rdf-syntax-ns#" xmlns:svg="http://www.w3.org/2000/svg" xmlns="http://www.w3.org/2000/svg" xmlns:sodipodi="http://sodipodi.sourceforge.net/DTD/sodipodi-0.dtd" xmlns:inkscape="http://www.inkscape.org/namespaces/inkscape" width="88.1" height="87.941" viewBox="-3.743 -3.694 88.1 87.941" version="1.1" id="svg8" inkscape:version="0.92.3 (2405546, 2018-03-11)" sodipodi:docname="bush-leafy2.svg" inkscape:export-filename="C:\Users\Brent\Downloads\plant-leaves2.png" inkscape:export-xdpi="96" inkscape:export-ydpi="96">
  <defs id="defs2"/>
  <sodipodi:namedview id="base" pagecolor="#ffffff" bordercolor="#666666" borderopacity="1.0" inkscape:pageopacity="0.0" inkscape:pageshadow="2" inkscape:zoom="2.6935273" inkscape:cx="-188.40108" inkscape:cy="90.308443" inkscape:document-units="mm" inkscape:current-layer="layer1" showgrid="false" fit-margin-top="0" fit-margin-left="0" fit-margin-right="0" fit-margin-bottom="0" inkscape:window-width="3840" inkscape:window-height="2035" inkscape:window-x="-13" inkscape:window-y="-13" inkscape:window-maximized="1"/>
  <metadata id="metadata5">
    <rdf:RDF>
      <cc:Work rdf:about="">
        <dc:format>image/svg+xml</dc:format>
        <dc:type rdf:resource="http://purl.org/dc/dcmitype/StillImage"/>
        <dc:title/>
      </cc:Work>
    </rdf:RDF>
  </metadata>
  <g inkscape:label="Layer 1" inkscape:groupmode="layer" id="layer1" transform="translate(-46.40269,-97.515908)">
    <g id="g1125" transform="translate(1.089876,1.0917906)">
      <path style="fill:#a9c264;stroke-width:0.26458332" d="m 85.550281,176.67401 c -0.525672,-0.22902 -1.439749,-1.16779 -2.406036,-2.47102 -1.346669,-1.81626 -1.819569,-2.80726 -3.482097,-7.29707 -1.05809,-2.85747 -2.038718,-5.26642 -2.179175,-5.35323 -0.140456,-0.0868 -0.44663,0.12297 -0.680384,0.46617 -0.808209,1.1866 -4.960633,4.98229 -6.032381,5.51413 -0.591648,0.2936 -1.496777,0.53382 -2.011394,0.53382 -1.078952,0 -2.560548,-0.89631 -3.074599,-1.86002 -0.496546,-0.93089 -0.25781,-7.02456 0.354939,-9.05967 0.252865,-0.83984 0.41067,-1.57606 0.350676,-1.63606 -0.05999,-0.06 -1.47629,0.35171 -3.147324,0.91491 -3.101431,1.04529 -8.610039,2.12048 -10.810465,2.11003 -2.619869,-0.0124 -4.527887,-1.636 -4.529914,-3.85456 -7.68e-4,-0.82576 0.303792,-1.58936 1.28503,-3.22199 2.905523,-4.83434 4.896745,-7.05022 8.842294,-9.83993 1.123386,-0.7943 2.04252,-1.53617 2.04252,-1.64861 0,-0.11244 -0.327422,-0.27674 -0.727604,-0.36512 -4.205138,-0.92868 -7.734683,-2.81266 -8.674607,-4.63027 -0.544598,-1.05314 -0.492226,-2.5226 0.11142,-3.12625 1.145701,-1.1457 3.382981,-1.6991 7.372562,-1.82362 2.073672,-0.0647 3.770313,-0.17873 3.770313,-0.25334 0,-0.0746 -2.115925,-2.23426 -4.702056,-4.79922 -5.348236,-5.30446 -6.89267,-7.39968 -9.873618,-13.39482 -2.180405,-4.38512 -2.478709,-5.73987 -1.511472,-6.86435 1.378774,-1.60292 4.087666,-1.16984 9.938309,1.58889 5.717032,2.69573 10.362763,6.04549 14.0424,10.12515 1.115571,1.23685 2.425089,2.67571 2.910041,3.19748 l 0.881727,0.94867 -0.137017,-0.92605 c -0.07536,-0.50932 -0.388956,-2.35479 -0.696878,-4.10104 -0.695079,-3.94184 -0.781849,-9.90082 -0.172781,-11.86578 1.140126,-3.67824 4.354086,-5.525907 6.488335,-3.730057 1.208471,1.016867 3.043719,3.936437 4.282482,6.812727 0.607679,1.41097 1.246841,2.5654 1.420363,2.5654 0.173519,0 0.52623,-0.44648 0.783799,-0.99218 1.459889,-3.09301 5.746991,-8.624938 8.378545,-10.811392 1.280035,-1.06353 1.549604,-1.180447 2.459323,-1.066656 1.81537,0.227073 3.431291,2.459096 4.107343,5.673358 0.4392,2.08814 0.37033,9.11266 -0.11502,11.73171 -0.579563,3.12744 -1.591179,6.77968 -2.358378,8.51445 -0.360357,0.81483 -0.555633,1.54304 -0.433951,1.61825 0.121685,0.0752 1.612437,-0.33065 3.312789,-0.90189 3.35972,-1.12872 7.45432,-1.76192 9.81679,-1.51809 1.75017,0.18063 3.96254,1.12588 4.63447,1.98009 0.86451,1.09904 0.69936,2.68949 -0.43682,4.20677 -1.48469,1.9827 -4.05008,4.52641 -5.72445,5.6761 -0.83675,0.57454 -1.52136,1.15001 -1.52136,1.27882 0,0.30466 0.98273,0.60917 5.13104,1.5899 3.51559,0.83115 4.91209,1.42641 9.05815,3.86109 3.68759,2.16545 4.54564,3.40895 3.94639,5.71913 -0.44551,1.71748 -1.4403,2.67703 -3.37413,3.2546 -1.70049,0.50787 -7.1678,1.10193 -12.44634,1.35238 -3.07168,0.14574 -3.90261,0.26367 -3.90261,0.5539 0,0.20281 0.52675,1.52503 1.17055,2.93827 1.39881,3.07059 1.87326,5.26774 1.65115,7.64627 -0.22955,2.45819 -0.6418,2.99304 -2.30698,2.99304 -1.51297,0 -4.07786,-0.78582 -5.76825,-1.76726 -0.63388,-0.36802 -2.401215,-1.60923 -3.927427,-2.75823 -1.52621,-1.149 -2.882824,-2.08909 -3.014692,-2.08909 -0.131871,0 -0.239765,0.83154 -0.239765,1.84787 0,3.41569 -1.954149,11.25902 -3.473165,13.94016 -0.73529,1.29783 -2.35944,2.99738 -2.864403,2.99738 -0.128556,0 -0.392303,0.0552 -0.586105,0.12265 -0.193804,0.0674 -0.733848,-0.0436 -1.200102,-0.2467 z" id="path1133" inkscape:connector-curvature="0"/>
      <path style="fill:#88aa57;stroke-width:0.26458332" d="m 85.471972,176.36917 c -0.738172,-0.46291 -3.150359,-3.50363 -3.75267,-4.73048 -0.214326,-0.43657 -1.154295,-2.92025 -2.088819,-5.51931 -0.934525,-2.59906 -1.825753,-4.77616 -1.980505,-4.83801 -0.154752,-0.0619 -1.523971,1.12743 -3.042708,2.64284 -1.518738,1.51541 -3.178059,3.00746 -3.687382,3.31567 -1.749343,1.05857 -4.08206,0.5465 -4.923581,-1.08082 -0.361066,-0.69823 -0.410533,-1.40274 -0.292272,-4.16271 0.08529,-1.99062 0.326933,-3.93704 0.602859,-4.85609 0.274396,-0.91396 0.363844,-1.63051 0.221326,-1.77303 -0.142515,-0.14252 -1.308342,0.12683 -2.884692,0.66646 -4.886264,1.67272 -11.017638,2.6214 -12.908658,1.99731 -1.439709,-0.47515 -2.569149,-1.90272 -2.569149,-3.24731 0,-2.42689 4.78356,-9.218 8.176136,-11.60747 3.490424,-2.45839 4.126989,-2.95798 4.126989,-3.239 0,-0.16334 -0.958028,-0.54869 -2.128951,-0.85631 -2.832046,-0.74404 -4.833879,-1.68901 -6.211478,-2.93215 -1.34625,-1.21485 -1.944529,-2.45038 -1.610073,-3.32502 0.635721,-1.66249 2.692256,-2.34622 7.701544,-2.56051 3.339582,-0.14287 3.836458,-0.22127 3.836458,-0.60535 0,-0.24268 -1.054887,-1.40481 -2.344194,-2.58253 -3.797408,-3.46872 -7.29198,-7.37413 -9.126837,-10.19982 -2.16137,-3.32852 -4.830612,-8.82113 -4.99483,-10.27806 -0.278798,-2.47349 1.95915,-3.22287 5.679976,-1.90195 8.248875,2.92841 15.283953,7.8514 20.57109,14.39519 0.835554,1.03415 1.63735,1.88027 1.781763,1.88027 0.313967,0 0.211672,-0.9226 -0.572056,-5.15937 -0.770544,-4.16551 -0.847842,-10.18453 -0.156297,-12.17084 0.88515,-2.5424 2.581261,-4.09822 4.469762,-4.100049 0.877131,-8.47e-4 1.186352,0.17597 2.1961,1.255779 1.067491,1.14156 2.742155,4.19299 4.296524,7.82875 0.315804,0.73868 0.685284,1.23433 0.87339,1.17163 0.179318,-0.0598 0.892111,-1.09365 1.583986,-2.29751 2.891121,-5.03053 8.101304,-10.870055 9.698556,-10.870055 1.913811,0 3.711197,2.476094 4.290511,5.910645 0.19402,1.15029 0.25899,3.50402 0.1755,6.35838 -0.11259,3.8495 -0.25442,5.03867 -0.941763,7.89629 -0.445066,1.85035 -1.182767,4.21539 -1.639337,5.25565 -0.562341,1.28123 -0.743382,1.97812 -0.561213,2.16029 0.182168,0.18217 1.332939,-0.0864 3.567293,-0.83265 2.03341,-0.67911 4.19675,-1.20126 5.64086,-1.36151 1.28835,-0.14297 2.49244,-0.31432 2.67573,-0.38077 0.56273,-0.20402 2.99105,0.36267 4.48516,1.0467 1.70513,0.78063 2.32991,1.87178 1.92058,3.35423 -0.37684,1.36482 -4.46156,5.85364 -6.4957,7.13831 -1.12121,0.7081 -1.69851,1.2445 -1.69851,1.57815 0,0.278 0.0298,0.50554 0.0662,0.50565 0.0364,1e-4 2.14973,0.52243 4.69635,1.16072 4.35009,1.09032 4.83778,1.27787 8.06127,3.10014 3.566,2.01589 5.32196,3.46106 5.48616,4.51516 0.13426,0.86182 -0.4627,3.08789 -0.98192,3.66163 -1.20787,1.33468 -5.71209,2.10208 -15.21134,2.59162 -3.42051,0.17627 -3.57541,0.2089 -3.6552,0.77 -0.0458,0.32227 0.40517,1.55469 1.0022,2.73873 1.37911,2.73505 1.94585,5.10853 1.79679,7.5248 -0.16158,2.61897 -0.4423,3.04117 -2.0221,3.04117 -2.59979,0 -5.16352,-1.21208 -9.553314,-4.51663 -1.748674,-1.31637 -3.29833,-2.31989 -3.443685,-2.23006 -0.145354,0.0898 -0.264279,1.00081 -0.264279,2.02438 0,2.03737 -0.71189,5.90519 -1.770065,9.6171 -1.077841,3.78088 -2.542617,6.36385 -4.051305,7.14403 -0.956043,0.49438 -1.284264,0.48938 -2.11613,-0.0323 z m -14.522495,-10.6455 c 1.826328,-1.15822 6.815794,-6.93763 8.027575,-9.29852 1.073218,-2.09093 2.218655,-6.1659 2.643259,-9.40357 0.457385,-3.48764 0.515879,-4.88393 0.204602,-4.88393 -0.286689,0 -2.648627,2.46601 -4.098568,4.27917 -1.567503,1.96017 -3.400957,5.3747 -4.30851,8.02395 -0.398809,1.16417 -0.94493,2.35101 -1.213601,2.63743 -0.450527,0.4803 -0.521848,0.48742 -0.917607,0.0917 -0.395758,-0.39576 -0.383963,-0.5699 0.151776,-2.24056 1.262134,-3.93586 4.314902,-9.16179 7.163223,-12.26249 l 1.093719,-1.19062 -0.721963,-0.0874 c -1.787798,-0.21649 -3.635769,1.13934 -6.610356,4.84993 -2.022977,2.52352 -4.082275,7.46044 -5.297453,12.7 -0.484658,2.08974 -0.423534,5.96525 0.109543,6.94531 0.486124,0.89373 2.229022,0.8197 3.774361,-0.16033 z m 36.004803,-2.75009 c 0.59231,-0.47001 0.71899,-1.56385 0.44072,-3.80525 -0.26121,-2.10401 -1.52277,-6.01014 -2.42411,-7.50568 -1.99942,-3.31756 -6.404106,-7.32912 -10.086186,-9.18599 -2.474915,-1.2481 -6.017855,-2.43117 -7.824692,-2.61287 l -1.455748,-0.14638 0.691978,0.6148 c 0.380587,0.33815 2.821368,2.28169 5.423958,4.31898 5.50607,4.31012 8.92653,7.51882 8.78821,8.24416 -0.1837,0.96331 -1.188659,0.71606 -2.522887,-0.62071 -1.824625,-1.82811 -6.210697,-5.54764 -8.677093,-7.35846 -1.164166,-0.85473 -2.709378,-2.00083 -3.433807,-2.5469 -0.724427,-0.54606 -1.364742,-0.94524 -1.422927,-0.88705 -0.167748,0.16774 1.578579,4.3828 2.299494,5.55021 1.898142,3.07375 4.5734,6.43847 6.848534,8.61351 5.774883,5.52082 11.602136,8.71823 13.354556,7.32763 z M 78.262076,139.62594 c 1.346068,-0.28005 2.447396,-0.63541 2.447396,-0.78968 0,-0.15427 -0.863203,-0.6021 -1.918229,-0.99518 -3.169463,-1.18088 -4.513284,-1.44426 -11.832929,-2.31919 -2.503145,-0.2992 -3.229602,-0.70735 -2.520718,-1.41624 0.23907,-0.23907 0.75359,-0.43352 1.143379,-0.43212 1.530734,0.006 7.86542,0.81435 9.310598,1.18883 1.81266,0.46971 1.931223,0.47839 1.713039,0.12536 -0.26203,-0.42397 -3.404986,-1.7725 -5.503484,-2.36134 -2.385759,-0.66944 -8.429116,-1.36045 -12.105495,-1.38416 -3.111891,-0.0201 -5.533026,0.51355 -6.530433,1.43929 -0.770196,0.71486 -0.75033,1.13316 0.107215,2.25746 1.291651,1.69344 6.33761,3.47 13.717265,4.82953 3.427783,0.63148 8.544923,0.57055 11.972396,-0.14256 z m 17.739858,-0.77761 c 2.735157,-0.92111 6.560226,-2.73096 9.924826,-4.696 2.06516,-1.20612 7.24337,-6.13006 7.97927,-7.58745 0.66904,-1.32498 0.36011,-2.08712 -1.1095,-2.7372 -4.64825,-2.05615 -15.018414,0.7234 -21.883208,5.86543 -3.400944,2.54745 -5.617523,4.94823 -5.072129,5.49362 0.0657,0.0657 0.93223,-0.36267 1.925632,-0.95192 2.898958,-1.71954 8.655056,-3.82579 12.261885,-4.48681 1.43513,-0.26302 1.84743,-0.15744 1.84743,0.47305 0,0.71014 -0.46346,0.9631 -2.645834,1.44408 -2.936182,0.64713 -5.948545,1.68273 -8.334375,2.86523 -2.139022,1.06018 -4.894792,2.94315 -4.894792,3.34453 0,0.11991 0.836782,0.29579 1.859515,0.39084 1.356355,0.12606 5.22105,1.17256 5.430687,1.47054 0.0078,0.0111 1.227553,-0.3885 2.710593,-0.88794 z m -14.40968,-8.6578 c -0.0661,-4.99125 -1.178425,-13.65768 -1.978252,-15.4131 -0.163357,-0.35853 -0.225566,-0.83806 -0.13824,-1.06562 0.172926,-0.45064 1.108932,-0.56511 1.355725,-0.16579 0.535773,0.8669 1.753341,8.19254 2.113659,12.71709 0.225959,2.8374 0.482041,5.69469 0.569068,6.34954 l 0.158234,1.19062 0.469268,-0.92604 c 1.029414,-2.03142 1.424284,-4.45554 1.443802,-8.86354 0.01537,-3.4731 -0.09385,-4.77975 -0.608261,-7.27604 -1.508898,-7.32231 -3.54525,-12.2894 -6.209956,-15.1474 -1.520204,-1.630473 -3.917564,-0.46849 -4.796113,2.32465 -0.418568,1.33074 -0.435266,1.88774 -0.168741,5.62847 0.562951,7.90111 1.761281,12.86256 4.453546,18.43907 1.977012,4.095 3.045836,6.0144 3.20538,5.75627 0.09578,-0.15497 0.154675,-1.75165 0.130881,-3.54818 z" id="path1131" inkscape:connector-curvature="0"/>
      <path style="fill:#688546;fill-opacity:1;stroke-width:0.26458332" d="m 85.264848,176.12061 c -0.324196,-0.22707 -1.232381,-1.28224 -2.018186,-2.3448 -1.192022,-1.61186 -1.719739,-2.73349 -3.185149,-6.76988 -1.887318,-5.19851 -2.155032,-5.81828 -2.51323,-5.81828 -0.127685,0 -1.57036,1.30675 -3.205946,2.9039 -3.213642,3.13812 -4.527727,3.90967 -6.142815,3.60668 -0.490112,-0.0919 -1.238835,-0.53012 -1.66383,-0.97372 -0.695047,-0.72547 -0.78214,-1.01402 -0.866455,-2.87071 -0.09162,-2.01756 0.123317,-3.90671 0.79153,-6.95694 0.182259,-0.83196 0.247208,-1.59682 0.144338,-1.69969 -0.102872,-0.10288 -1.466084,0.2428 -3.029358,0.76816 -2.901915,0.97524 -7.013994,1.86037 -10.150939,2.18501 -2.186175,0.22624 -3.893755,-0.41505 -4.721874,-1.77334 -1.000802,-1.64152 -0.638379,-2.77645 2.308115,-7.2279 2.050732,-3.09816 4.444917,-5.37222 8.709042,-8.27208 1.070854,-0.72824 1.131098,-1.32519 0.153443,-1.52043 -5.148596,-1.02817 -9.326563,-3.62934 -9.326563,-5.80665 0,-1.29102 0.640952,-1.92432 2.58933,-2.55841 1.465051,-0.4768 2.363759,-0.57468 5.129,-0.55864 5.232566,0.0304 5.255143,0.23807 -0.60186,-5.53708 -5.535652,-5.45829 -6.7941,-7.1506 -9.921161,-13.34156 -2.673874,-5.29373 -2.791959,-6.63701 -0.640126,-7.28171 1.4378,-0.43078 2.781372,-0.10522 6.927769,1.67865 7.564872,3.25457 12.10333,6.65565 18.048338,13.52529 0.934775,1.08016 1.651341,1.70104 1.796118,1.55626 0.144778,-0.14478 -0.04646,-1.60376 -0.479345,-3.65705 -0.624174,-2.9606 -0.722564,-4.05128 -0.737788,-8.17867 -0.01484,-4.02459 0.057,-4.94461 0.463674,-5.93786 0.704353,-1.7203 1.418233,-2.60703 2.573211,-3.19625 1.655617,-0.844635 2.305814,-0.703207 3.727164,0.81072 1.140696,1.21499 1.67872,2.17005 4.167275,7.39735 0.381026,0.80037 0.875795,1.48883 1.099481,1.52991 0.266015,0.0489 0.789512,-0.60976 1.513314,-1.90392 2.31122,-4.13247 6.223296,-9.00694 8.488513,-10.576737 1.364099,-0.945321 2.30863,-0.778475 3.583874,0.633068 1.387676,1.535991 1.980888,3.790009 2.186118,8.306519 0.13343,2.93656 0.0716,4.35267 -0.28488,6.51932 -0.611119,3.71488 -1.607288,7.61563 -2.406219,9.42215 -1.168376,2.6419 -1.003085,2.69339 3.634319,1.13204 2.45767,-0.82745 3.91132,-1.14419 6.26942,-1.36604 2.88654,-0.27157 3.17253,-0.25412 4.78832,0.29218 2.48002,0.83848 3.17364,1.52977 3.17364,3.16293 0,1.41942 -3.76443,5.87294 -6.36147,7.52594 -2.95565,1.88126 -2.77235,2.26407 1.55215,3.24157 1.69924,0.3841 3.72466,0.87368 4.50092,1.08797 1.96217,0.54166 7.87313,3.92215 9.27254,5.30299 1.08252,1.06815 1.15049,1.21842 1.03095,2.27902 -0.20388,1.80882 -0.90092,3.0021 -2.01183,3.4441 -2.51507,1.00069 -8.4643,1.76518 -13.80409,1.77387 -3.38349,0.006 -3.87897,0.12481 -4.17227,1.00473 -0.22629,0.67887 -0.2445,0.66724 -1.38939,-0.88738 -2.34019,-3.17771 -6.142481,-6.38023 -9.658447,-8.13495 -3.401796,-1.69773 -8.754904,-2.98662 -9.01913,-2.17157 -0.04718,0.14552 0.631743,0.78573 1.50871,1.42269 0.876966,0.63695 2.629392,2.0112 3.894277,3.05386 1.264883,1.04267 3.252291,2.61932 4.416457,3.50368 2.404298,1.82641 4.894793,4.35442 4.894793,4.96851 0,0.80917 -0.887376,0.38854 -2.617931,-1.24093 -2.508623,-2.36208 -6.542908,-5.68782 -9.369613,-7.72402 -1.337736,-0.96363 -2.757723,-2.00809 -3.155522,-2.32104 -1.401368,-1.10242 -1.274252,-0.12895 0.486016,3.72194 1.53048,3.34819 4.609666,7.40745 8.358987,11.01956 3.412278,3.2874 3.921686,3.67622 7.688433,5.86826 1.75278,1.02003 2.27796,1.19926 3.60338,1.22973 2.15653,0.0496 2.41552,-0.22615 2.41067,-2.56641 -0.002,-1.03721 -0.19316,-2.65974 -0.42447,-3.60562 -0.23131,-0.94589 -0.51467,-2.10675 -0.62968,-2.57969 -0.11502,-0.47294 -0.16715,-0.8599 -0.11585,-0.8599 0.0513,0 0.40489,0.53174 0.78576,1.18165 1.3892,2.37049 1.77625,7.98805 0.62232,9.03233 -1.29992,1.17642 -5.89674,-0.61646 -10.491217,-4.09184 -1.862169,-1.4086 -3.44106,-2.41774 -3.704167,-2.36751 -0.39125,0.0747 -0.483309,0.53383 -0.627049,3.12739 -0.171998,3.10349 -0.721971,5.86049 -1.933247,9.69131 -1.542071,4.87702 -3.898937,7.177 -5.910612,5.76797 z m 2.889729,-2.00821 c 0.931574,-1.00908 2.609062,-4.61679 2.609062,-5.61121 0,-0.20705 0.306856,-1.55034 0.681903,-2.9851 0.498752,-1.90799 0.687885,-3.3193 0.704164,-5.25449 0.02651,-3.15113 -0.220075,-3.82967 -2.220608,-6.11051 -0.777931,-0.88693 -1.675694,-1.9585 -1.99503,-2.38125 l -0.580615,-0.76865 -0.0122,0.92604 c -0.0067,0.50932 0.224795,2.09841 0.514466,3.53131 0.667608,3.30239 0.724726,7.61661 0.107625,8.12876 -0.303316,0.25173 -0.540808,0.27131 -0.859896,0.0709 -0.3551,-0.22305 -0.471352,-0.88906 -0.59771,-3.42424 -0.199445,-4.00147 -2.07364,-13.59838 -2.655654,-13.59838 -0.126609,0 -0.230198,0.34944 -0.230198,0.77653 0,0.42709 -0.119124,1.08984 -0.264721,1.47279 -0.145595,0.38295 -0.435668,1.51615 -0.64461,2.51823 -0.414888,1.98982 -1.902325,5.63758 -2.935343,7.19857 -0.756589,1.14329 -0.825146,2.20111 -0.232445,3.58665 0.231439,0.54103 1.011452,2.57728 1.733363,4.525 0.72191,1.94771 1.611561,4.13134 1.977003,4.85251 0.8503,1.67799 2.658814,3.64472 3.351509,3.64472 0.294863,0 0.992331,-0.49417 1.549932,-1.09816 z M 70.5997,166.23542 c 1.601518,-0.82957 5.935705,-5.60084 8.027025,-8.83651 1.474629,-2.28154 2.796603,-6.59884 3.276319,-10.6998 0.636419,-5.44058 0.558684,-5.64464 -1.424405,-3.73911 -3.06945,2.94941 -5.97148,7.50158 -7.31904,11.48077 -0.714491,2.10981 -1.063318,2.77813 -1.450051,2.77813 -0.804905,0 -0.206023,-2.42592 1.471647,-5.96128 1.225079,-2.5816 3.752165,-6.37726 5.542312,-8.3245 0.812445,-0.88373 1.416666,-1.70469 1.342715,-1.82434 -0.184073,-0.29784 -2.570562,0.10478 -3.514542,0.59293 -0.906294,0.46866 -3.901369,3.58303 -5.032677,5.23312 -1.723345,2.51363 -3.739912,7.64948 -4.702675,11.97692 -0.559713,2.51581 -0.436613,6.13381 0.244043,7.17263 0.54455,0.83108 2.09844,0.8974 3.539329,0.15104 z m -13.702729,-9.79869 c 4.892805,-0.82777 9.101519,-2.34042 9.853203,-3.54133 0.196675,-0.31421 0.701291,-1.40473 1.121373,-2.42338 0.420081,-1.01864 1.401252,-2.77482 2.180384,-3.9026 0.779129,-1.12779 1.334449,-2.05052 1.234048,-2.05052 -0.428231,0 -3.809177,1.73099 -5.393174,2.76121 -0.945886,0.61521 -2.315104,1.45234 -3.042709,1.8603 -0.727604,0.40797 -1.579155,0.97358 -1.892336,1.25692 -0.799298,0.72313 -1.788927,0.53686 -1.892452,-0.35622 -0.05857,-0.50527 0.122344,-0.85395 0.661458,-1.27484 1.268747,-0.99052 7.021619,-4.59815 8.867559,-5.56084 0.96665,-0.50413 1.705959,-1.00006 1.642914,-1.10207 -0.06305,-0.10201 -1.036571,-0.26099 -2.163386,-0.35329 -1.126816,-0.0923 -2.83865,-0.34995 -3.804076,-0.57257 -1.686045,-0.38879 -1.795686,-0.38294 -2.778125,0.14817 -4.307106,2.32845 -7.544036,5.48881 -10.33976,10.09517 -1.55698,2.56535 -1.790718,3.26407 -1.404125,4.19739 0.593675,1.43326 2.336222,1.63276 7.149204,0.8185 z m 57.149999,-7.80499 c 2.4011,-0.22742 5.29465,-0.48269 6.43011,-0.56726 1.93281,-0.14396 2.13111,-0.21714 3.10886,-1.14725 1.74706,-1.66194 1.40255,-2.92949 -1.28618,-4.73214 -4.462,-2.99153 -6.6458,-3.79036 -15.79702,-5.7785 -0.67184,-0.14596 -7.100124,2.98645 -6.875292,3.35024 0.08979,0.14528 0.550432,0.26415 1.023652,0.26415 0.47321,0 2.55454,0.23566 4.62517,0.52368 5.91579,0.82288 7.76242,1.44976 7.35998,2.49851 -0.19939,0.51961 -0.72767,0.52008 -3.88094,0.003 -2.6597,-0.43575 -7.97192,-1.13596 -10.186463,-1.34268 l -1.322916,-0.12349 1.313611,0.84363 c 0.722485,0.46399 2.551998,2.09863 4.065578,3.63253 2.14276,2.17151 2.96481,2.83316 3.71347,2.98885 1.0327,0.21477 1.12513,0.20981 7.70838,-0.41372 z m -35.744312,-8.81489 c 1.368388,-0.31072 2.602944,-0.67992 2.743459,-0.82043 0.516649,-0.51665 -3.244083,-1.95817 -7.261463,-2.78338 -1.066297,-0.21903 -3.248412,-0.52558 -4.849141,-0.68122 -1.600729,-0.15564 -3.237838,-0.34981 -3.638021,-0.43148 -0.788092,-0.16083 -0.98158,-0.81934 -0.315812,-1.07482 0.68307,-0.26212 6.934206,0.43938 10.015628,1.12394 2.514841,0.5587 3.445108,0.64177 3.044283,0.27186 -0.06063,-0.0559 -1.181807,-0.63572 -2.491494,-1.28836 -3.713536,-1.85053 -5.645148,-2.29915 -12.787495,-2.96994 -4.561901,-0.42843 -6.448573,-0.31324 -9.116789,0.55665 -3.379209,1.10168 -2.193814,3.84584 2.431854,5.62968 1.175017,0.45314 2.762784,0.95302 3.52837,1.11085 0.765587,0.15783 2.165882,0.51558 3.111768,0.79501 4.622448,1.36552 11.028066,1.59637 15.584853,0.56164 z m 18.334834,-0.96118 c 6.230468,-2.28079 10.907908,-5.02965 14.233088,-8.36457 4.45752,-4.47058 4.68679,-6.05534 1.03646,-7.16409 -3.11093,-0.94492 -7.21497,-0.43886 -12.412151,1.53049 -4.629063,1.75408 -6.84838,3.05716 -10.915539,6.4091 -1.64945,1.35938 -2.364081,2.14491 -2.68813,2.95479 -0.242766,0.60673 -0.376764,1.16777 -0.297772,1.24676 0.07899,0.079 0.709049,-0.18191 1.400132,-0.57978 3.363344,-1.93633 8.55906,-3.93223 12.372841,-4.75295 1.737549,-0.37391 2.245139,-0.31899 2.245139,0.24293 0,0.22325 -0.59699,0.52877 -1.52136,0.77859 -5.232549,1.41413 -6.842076,1.96789 -9.34709,3.21587 -3.068296,1.5286 -5.389182,3.34901 -4.784241,3.75257 0.195032,0.1301 1.151305,0.3106 2.125051,0.4011 0.973749,0.0905 2.42152,0.39555 3.217273,0.6779 2.00682,0.71205 2.532435,0.6777 5.336299,-0.34871 z m -11.592385,-7.69823 c 0.973306,-3.2898 1.20765,-8.22655 0.57146,-12.03854 -1.371635,-8.21872 -3.656976,-14.43958 -6.378075,-17.36159 -0.889408,-0.95507 -1.247463,-1.15924 -2.03294,-1.15924 -1.635291,0 -3.329035,1.90902 -3.766865,4.24563 -0.236169,1.26041 0.292595,7.92643 0.931926,11.74857 0.290891,1.73905 0.991796,4.54641 1.557565,6.23858 1.104678,3.304 5.121074,11.63388 5.609474,11.63388 0.578668,0 0.112691,-10.44959 -0.670586,-15.03805 -0.380984,-2.23181 -0.819595,-4.29494 -0.974688,-4.58473 -0.155094,-0.2898 -0.217025,-0.69619 -0.137626,-0.9031 0.22484,-0.58592 0.930053,-0.44231 1.075976,0.21911 1.293294,5.86211 1.495483,7.40429 2.433002,18.55773 l 0.175461,2.08742 0.607262,-1.16137 c 0.333994,-0.63876 0.783386,-1.7567 0.998654,-2.4843 z m -15.21617,-4.19618 c -4.41833,-4.34408 -7.003474,-6.58526 -11.714757,-10.15608 -1.480786,-1.12233 -1.833281,-1.80134 -1.084326,-2.08875 0.722133,-0.2771 1.559,0.13882 4.095397,2.03543 4.325155,3.23416 9.024184,7.38518 13.631051,12.04137 2.434331,2.46039 2.62373,2.55757 1.962319,1.00683 -0.302244,-0.70865 -0.837636,-1.91679 -1.18976,-2.68475 -0.352123,-0.76796 -0.640223,-1.49053 -0.640223,-1.60572 0,-0.60382 -4.638508,-6.38843 -7.246128,-9.03653 -2.881679,-2.92641 -3.711679,-3.60202 -7.631822,-6.21223 -4.426026,-2.94705 -10.906768,-5.55671 -12.263832,-4.93839 -0.459629,0.20942 -0.639468,0.50454 -0.639468,1.04937 0,1.15503 0.91671,3.57332 2.313133,6.10205 0.692308,1.25368 1.347092,2.49559 1.455077,2.7598 0.81334,1.99005 7.665816,9.32491 12.099279,12.95102 1.97166,1.61261 1.983507,1.61778 4.500001,1.96384 1.387724,0.19084 3.474699,0.63266 4.637718,0.98183 1.163021,0.34917 2.233647,0.64401 2.379167,0.65519 0.145521,0.0112 -1.952752,-2.15974 -4.662826,-4.82428 z m 21.215438,0.55816 c 0.849191,-0.61847 1.931951,-1.36261 2.406134,-1.65365 2.177471,-1.33647 4.53435,-6.52508 5.528498,-12.17083 0.447059,-2.53884 0.584822,-7.51203 0.270658,-9.77077 -0.360344,-2.59078 -1.430149,-5.07322 -2.403136,-5.576369 -0.643319,-0.332673 -0.794811,-0.309501 -1.610564,0.246354 -1.632582,1.112444 -5.240504,5.516405 -7.169036,8.750785 -2.304466,3.86487 -2.51809,5.04487 -1.532943,8.46751 0.620763,2.15667 1.174242,7.82976 0.965147,9.89257 -0.07954,0.78472 -0.04879,1.3205 0.06834,1.19063 0.33846,-0.37527 2.613052,-7.01343 3.875765,-11.31101 0.635273,-2.16212 1.292609,-4.09689 1.460744,-4.29948 0.817596,-0.98514 1.624713,0.0157 1.306152,1.61973 -0.577516,2.90788 -3.811132,12.89011 -4.734454,14.61536 -0.328454,0.61372 -0.390813,1.12365 -0.137414,1.12365 0.08917,0 0.856919,-0.50602 1.706109,-1.12448 z" id="path1129" inkscape:connector-curvature="0"/>
      <path style="fill:#445500;stroke-width:0.26458332" d="m 84.977823,175.53726 c -2.056485,-2.13172 -3.001865,-3.87773 -4.905801,-9.06044 -1.102593,-3.00137 -2.067663,-5.22616 -2.340743,-5.39615 -0.390429,-0.24305 -0.686265,-0.0535 -1.852083,1.18661 -0.763087,0.81172 -1.739037,1.76407 -2.168779,2.11634 l -0.781346,0.64048 0.861208,-1.05833 c 5.800701,-7.12845 5.835243,-7.18297 7.125486,-11.24479 0.814972,-2.56562 1.332876,-5.82561 1.448692,-9.11891 0.07999,-2.2747 -0.311169,-2.48916 -1.9083,-1.04625 -2.771534,2.50391 -6.214306,7.86181 -7.399433,11.51556 -0.592659,1.82716 -1.18305,2.86658 -1.466961,2.58267 -0.25641,-0.25641 0.822053,-3.22921 2.111169,-5.81945 1.487633,-2.98913 3.327783,-5.70606 5.442373,-8.03549 l 1.681261,-1.85209 -1.100117,-0.0806 c -2.286709,-0.16751 -3.176696,0.3011 -5.939298,3.12724 -2.857854,2.92358 -4.279167,5.34519 -5.633365,9.59806 -0.750809,2.35792 -1.027086,2.73194 -1.286172,1.7412 -0.16706,-0.63884 -0.386834,-0.61695 -2.957184,0.29448 -2.414093,0.85602 -6.749428,1.8309 -9.661516,2.17256 -2.377078,0.2789 -2.710096,0.26216 -3.704305,-0.18616 -2.211961,-0.99746 -2.723854,-2.84956 -1.419007,-5.13417 2.477696,-4.33811 5.322481,-7.73528 7.939461,-9.48112 2.179034,-1.45367 3.802658,-2.76948 3.802658,-3.08174 0,-0.17552 -0.148828,-0.47693 -0.330729,-0.66979 -0.398712,-0.42274 -0.175629,-0.3837 3.638021,0.6366 3.854403,1.03121 9.435532,1.23005 12.734912,0.4537 1.290487,-0.30365 2.822589,-0.65234 3.404672,-0.77486 3.593994,-0.75647 -2.875918,-3.2878 -10.632578,-4.15995 -4.262917,-0.47932 -4.845548,-0.59268 -4.845548,-0.94279 0,-0.57754 6.93111,0.11459 11.020849,1.10053 3.950348,0.95234 3.712499,0.25291 -0.624554,-1.83658 -3.131066,-1.50848 -6.135257,-2.28872 -9.867128,-2.56265 -3.035189,-0.2228 -3.595339,-0.3505 -3.213271,-0.73257 0.16657,-0.16657 0.302854,-0.48298 0.302854,-0.70314 0,-0.22015 -2.182547,-2.54783 -4.850104,-5.1726 -4.087352,-4.0218 -6.449107,-6.7567 -5.834837,-6.7567 0.174264,0 3.223493,3.24049 5.027096,5.34242 1.176813,1.37146 5.023858,4.85597 7.160209,6.48545 0.637857,0.48651 1.394274,0.72076 2.920374,0.90439 2.393122,0.28795 5.544371,1.05548 7.502769,1.82741 0.754851,0.29754 1.440696,0.47274 1.524101,0.38934 0.20389,-0.2039 -8.805207,-9.22858 -11.465233,-11.48507 -1.164166,-0.98756 -3.188229,-2.6056 -4.497916,-3.59564 -2.293291,-1.7336 -2.969389,-2.51413 -2.177735,-2.51413 0.622711,0 6.623792,4.61482 10.062077,7.73772 1.775487,1.61262 4.865167,4.53988 6.865957,6.50502 2.000789,1.96514 3.695732,3.51505 3.766537,3.44424 0.216011,-0.21601 -3.730803,-8.59253 -4.55543,-9.66822 -0.424717,-0.55401 -1.251392,-1.66317 -1.837057,-2.4648 -2.534547,-3.46911 -8.304874,-8.95843 -10.801433,-10.27542 -1.259864,-0.6646 -2.122975,-1.31355 -1.961631,-1.4749 0.06402,-0.064 1.079435,0.5003 2.25647,1.25404 3.759887,2.40774 6.393669,4.74233 9.306846,8.24961 3.227869,3.88615 3.740081,3.76558 2.810124,-0.66146 -0.741265,-3.52878 -1.313093,-9.18389 -1.036193,-10.24747 0.176458,-0.67779 0.206306,-0.6922 0.398044,-0.19223 0.114004,0.29727 0.290317,1.72602 0.391808,3.175 0.544611,7.77535 1.874116,12.57692 5.491393,19.83241 1.803493,3.61742 2.435495,4.63021 2.889356,4.63021 0.122965,0 0.223576,-1.72641 0.223576,-3.83646 0,-2.11005 0.09763,-3.83646 0.21695,-3.83646 0.244753,0 0.845185,4.75903 0.842886,6.68073 -7.94e-4,0.69122 0.09993,1.25677 0.223911,1.25677 0.360773,0 1.831512,-3.41476 2.279127,-5.29167 0.225581,-0.94588 0.482732,-3.20807 0.571447,-5.02708 0.132905,-2.72505 0.0587,-3.91282 -0.42149,-6.74687 -0.320534,-1.89177 -0.870331,-4.36847 -1.221769,-5.50377 -0.801417,-2.58892 -0.802539,-2.78849 -0.01484,-2.63792 0.540451,0.10332 0.757217,-0.12334 1.616533,-1.69033 1.730047,-3.1548 4.404148,-6.76085 6.786631,-9.151837 2.625001,-2.634371 3.262313,-2.848884 4.748533,-1.598313 1.002406,0.843468 2.100435,3.05044 2.078668,4.178 l -0.01532,0.79375 -0.274881,-0.66146 c -1.418373,-3.413109 -2.055275,-4.233331 -3.287181,-4.233331 -1.230733,0 -5.167786,4.260391 -8.087646,8.751861 -2.595295,3.9922 -3.03657,5.92014 -2.115859,9.24421 0.821854,2.96717 1.175067,6.31565 1.052994,9.98243 -0.119446,3.58786 0.0099,3.71359 1.158531,1.12566 0.692872,-1.56114 4.027853,-11.64386 4.441611,-13.42842 0.340886,-1.47026 0.667538,-1.88937 1.119952,-1.43695 0.191079,0.19108 0.09582,0.95081 -0.310624,2.47726 -0.742214,2.78751 -3.267511,10.33472 -4.29881,12.84761 -0.432191,1.05309 -0.742455,2.04475 -0.689475,2.20369 0.05397,0.16189 0.675085,-0.12477 1.412285,-0.65179 0.723779,-0.51743 2.064166,-1.37279 2.978643,-1.90079 2.304095,-1.33035 3.908128,-3.69163 5.37727,-7.91581 0.404889,-1.16417 1.923504,-6.05332 1.931504,-5.85605 0.0263,0.64759 -1.995488,7.6761 -2.662088,9.25987 -0.842221,2.00103 -0.701579,2.40046 0.772637,2.19431 0.930896,-0.13017 0.539138,0.12859 -2.319507,1.53204 -4.352793,2.137 -9.382057,6.07097 -10.23959,8.00956 -0.737748,1.66781 -0.344583,1.97855 1.304467,1.03101 3.631812,-2.08683 10.257063,-4.5464 13.036161,-4.83957 2.37207,-0.25023 1.27871,0.31202 -2.32447,1.19535 -2.233178,0.54746 -4.179176,1.24662 -6.217708,2.23389 -3.090132,1.49656 -6.009897,3.46908 -6.009897,4.06013 0,0.50533 0.883613,0.89091 2.041612,0.89091 0.946082,0 1.640449,0.15229 4.874057,1.06895 1.160457,0.32897 1.368891,0.30004 3.836458,-0.53235 3.06505,-1.03394 6.116218,-2.41746 8.688098,-3.93951 l 1.84544,-1.09215 0.33412,0.63769 c 0.40275,0.76869 1.68438,1.22532 6.0008,2.13806 2.10626,0.44538 3.61343,0.93245 4.55847,1.47315 1.49906,0.85767 2.28507,1.62705 0.96466,0.94423 -2.35106,-1.21578 -8.43975,-2.91903 -11.58771,-3.24155 -1.60009,-0.16393 -1.67696,-0.14075 -4.77811,1.4409 -3.315596,1.69102 -4.295821,2.29577 -4.076577,2.51501 0.07303,0.073 1.905177,0.32701 4.071447,0.5644 4.27668,0.46866 8.85879,1.3239 9.26399,1.72909 0.54238,0.54239 -0.20206,0.59019 -2.81498,0.18073 -6.05227,-0.94841 -10.791311,-1.53579 -11.753145,-1.45674 l -1.017588,0.0836 1.636427,1.12264 c 2.524976,1.73222 5.021126,3.94386 5.911026,5.23728 0.8902,1.29387 1.51581,1.72094 2.90359,1.98214 l 0.92604,0.17429 -0.78837,0.32244 c -0.4336,0.17734 -0.88449,0.46381 -1.00198,0.63661 -0.14746,0.21688 -0.43592,0.0274 -0.93143,-0.61186 -3.77616,-4.87162 -8.905316,-8.3802 -14.697725,-10.05393 -2.805528,-0.81066 -3.516802,-0.91654 -4.254688,-0.63339 -0.708163,0.27175 -0.471186,0.7702 0.800267,1.68329 0.67033,0.4814 1.950251,1.49257 2.844271,2.24704 0.894019,0.75448 3.237775,2.63084 5.208347,4.1697 3.437987,2.68478 5.545268,4.67373 5.545268,5.23388 0,0.52099 -0.709119,0.24849 -1.471855,-0.56561 -1.431866,-1.52829 -7.981135,-7.04328 -9.946079,-8.37537 -1.06894,-0.72466 -2.406383,-1.68847 -2.972094,-2.1418 -0.826809,-0.66255 -2.01414,-1.10588 -2.01414,-0.75205 0,0.22769 1.657575,4.32268 2.135925,5.27675 1.338448,2.66953 4.635927,7.19373 6.383698,8.75854 0.98952,0.88594 1.795386,1.73536 1.790814,1.88761 -0.0046,0.15223 -0.283784,0.4768 -0.620469,0.72125 -0.608489,0.44179 -0.615694,0.43591 -1.203714,-0.9828 -0.325358,-0.78498 -1.207006,-2.12581 -1.959219,-2.97962 -0.752213,-0.8538 -1.724848,-2.04462 -2.16141,-2.64625 -0.835951,-1.15204 -1.455209,-1.5876 -1.455209,-1.02354 0,0.18495 0.297191,2.11598 0.660422,4.29118 0.771503,4.62012 0.898453,8.8497 0.26562,8.8497 -0.218281,0 -0.399542,-0.20836 -0.402802,-0.46302 -0.02932,-2.29097 -0.376798,-5.74921 -0.830781,-8.26823 -0.747678,-4.14866 -2.150433,-9.59467 -2.501484,-9.71169 -0.178692,-0.0596 -0.348708,0.58426 -0.448675,1.69904 -0.295114,3.29095 -1.430872,7.14096 -3.107286,10.53311 -0.864883,1.75005 -1.572514,3.38409 -1.572514,3.6312 0,0.62974 3.341047,9.53485 4.267923,11.37557 0.944319,1.87536 2.833473,3.90402 3.635557,3.90402 0.333161,0 1.167821,-0.54208 1.935097,-1.25677 1.237295,-1.1525 1.31431,-1.18869 0.928222,-0.43615 -0.555014,1.0818 -2.176243,2.48667 -2.869632,2.48667 -0.303098,0 -0.983564,-0.4483 -1.512149,-0.99622 z M 57.094179,156.95468 c 2.634682,-0.40149 5.948917,-1.41399 8.004876,-2.44549 1.831422,-0.91884 1.702771,-0.74832 3.644762,-4.83092 0.415325,-0.87312 1.506583,-2.63412 2.425023,-3.91332 0.918438,-1.27921 1.614239,-2.38147 1.546225,-2.44949 -0.252669,-0.25267 -8.134693,4.10141 -11.643777,6.43209 -1.007108,0.66891 -1.900395,0.65057 -1.637844,-0.0336 0.173413,-0.4519 6.119038,-4.29604 9.502069,-6.14355 1.309688,-0.71524 2.38125,-1.41707 2.38125,-1.55962 0,-0.14255 -1.012031,-0.41303 -2.248958,-0.60104 -1.236927,-0.18802 -3.201459,-0.50807 -4.365625,-0.71123 -2.089651,-0.36466 -2.133552,-0.36082 -3.439584,0.30025 -3.7047,1.8752 -7.308124,5.2122 -9.801073,9.07642 -2.268731,3.51666 -2.708941,5.02997 -1.828738,6.28663 0.792225,1.13106 2.854489,1.29493 7.461394,0.5929 z m 10.436653,10.24697 c -0.218837,-0.26368 -0.06515,-0.31561 0.714121,-0.24129 0.546132,0.0521 1.445483,-0.0944 1.998554,-0.32547 1.157013,-0.48343 1.205548,-0.49199 1.205548,-0.21262 0,0.83371 -3.324339,1.49497 -3.918223,0.77938 z m -1.364136,-1.23411 c -0.15064,-0.28147 -0.305001,-2.7224 -0.300574,-3.13215 0.0099,-0.9147 0.401666,1.49219 0.645138,2.78403 0.183507,0.97366 0.05805,1.10041 -0.344564,0.34812 z m 40.464604,-2.34521 c 0.50528,-0.24767 1.06908,-0.74797 1.25287,-1.11177 l 0.33417,-0.66146 0.004,0.80698 c 0.005,1.05706 -0.42094,1.44483 -1.57037,1.42927 l -0.93927,-0.0127 0.9187,-0.45031 z m 1.52869,-2.05652 c -0.10914,-0.11098 -0.19843,-0.81083 -0.19843,-1.55523 0,-0.74439 -0.16884,-2.00431 -0.37519,-2.79981 -0.3995,-1.54012 -0.34329,-2.11174 0.0944,-0.96042 0.66415,1.74684 1.03699,5.88264 0.47918,5.31546 z m 3.50573,-12.17664 c 2.88563,-0.45154 9.19765,-0.74568 8.06979,-0.37606 -1.16155,0.38068 -5.67956,0.80277 -8.16397,0.76271 l -2.15478,-0.0347 z m 11.64167,-1.38119 c 0,-0.11829 0.35719,-0.55729 0.79375,-0.97554 0.62056,-0.59454 0.79375,-0.66307 0.79375,-0.31409 0,0.24551 -0.23813,0.6845 -0.52917,0.97555 -0.54311,0.54311 -1.05833,0.69601 -1.05833,0.31408 z m 1.70519,-3.53509 c -0.1004,-0.31635 -0.72003,-1.14978 -1.37695,-1.85208 -1.48457,-1.58713 -1.03094,-1.6878 0.59316,-0.13164 0.83321,0.79835 1.19527,1.35937 1.19527,1.85208 0,0.85591 -0.16487,0.90865 -0.41148,0.13164 z m -68.433326,-6.19434 c -0.684068,-0.21046 -1.324056,-0.51258 -1.422197,-0.67138 -0.200861,-0.325 0.114678,-0.24408 2.136789,0.54797 1.539593,0.60304 1.094319,0.67994 -0.714592,0.12341 z m -3.948628,-2.03176 c -2.711045,-2.06778 -2.637596,-4.21448 0.165303,-4.83132 l 0.79375,-0.17469 -0.843009,0.53949 c -1.03731,0.66382 -1.492599,1.46547 -1.255883,2.2113 0.09866,0.31084 0.716861,1.13978 1.37378,1.84209 1.39811,1.49469 1.333551,1.6087 -0.233941,0.41313 z m 58.863454,-6.03422 c 1.24263,-1.32004 2.52375,-2.94629 2.84693,-3.61388 0.53256,-1.10013 0.55164,-1.27803 0.20372,-1.89941 -0.46493,-0.83036 -1.69731,-1.45039 -3.76068,-1.89205 -1.21581,-0.26024 -2.15694,-0.26372 -4.4369,-0.0165 -1.59157,0.17263 -3.20563,0.43243 -3.58679,0.57735 -0.38117,0.14492 -0.74755,0.20896 -0.81419,0.14232 -0.22119,-0.22117 3.40794,-1.21654 4.43557,-1.21654 0.55565,0 1.60285,-0.13678 2.3271,-0.30396 1.18459,-0.27344 1.54525,-0.23274 3.59144,0.40522 1.7037,0.53119 2.38766,0.88173 2.72502,1.39662 0.75973,1.15949 0.57579,2.25486 -0.64368,3.83305 -1.42695,1.8467 -4.4854,4.98782 -4.85656,4.98782 -0.15967,0 0.72639,-1.08004 1.96902,-2.40008 z m -30.092641,-9.31619 c -0.274261,-1.71453 -0.433345,-3.18263 -0.353517,-3.26246 0.272777,-0.27278 1.152371,5.92249 1.143064,7.23041 -0.01275,1.79195 0.177599,4.75684 -0.789547,-3.96795 z m -1.224208,-6.01656 c -0.214464,-0.40073 -0.225626,-0.66514 -0.03608,-0.85468 0.189542,-0.18954 0.329737,-0.0542 0.453162,0.4376 0.230376,0.91789 0.573628,2.83206 0.17332,2.08409 z m -29.686487,1.3073 c -0.145729,-0.18191 -1.460219,-2.4988 -1.775021,-3.15364 l -0.57237,-1.19062 0.669558,0.79375 c 0.368257,0.43656 0.783814,1.12117 0.923462,1.52135 0.277271,0.79457 1.163038,2.53926 0.754371,2.02916 z m 49.605376,-6.32864 c 0,-0.65484 0.0516,-0.92273 0.11466,-0.59531 0.0631,0.32742 0.0631,0.8632 0,1.19062 -0.0631,0.32743 -0.11466,0.0595 -0.11466,-0.59531 z m -53.641962,-1.35061 c -1.156211,-2.48377 -0.817181,-3.79362 1.050105,-4.0571 0.582083,-0.0821 0.879739,-0.0745 0.661458,0.017 -0.74154,0.31085 -1.5875,1.2477 -1.5875,1.75806 0,0.27966 0.189609,1.1607 0.421353,1.95787 0.560804,1.9291 0.279519,2.09627 -0.545416,0.32414 z m 27.905547,-7.11649 c 0.680661,-1.27183 3.363203,-2.086546 4.180184,-1.26956 0.492976,0.49297 0.374216,0.7898 -0.194273,0.48555 -0.90986,-0.48694 -2.018131,-0.30035 -3.169349,0.53359 -0.934471,0.67692 -1.066488,0.71741 -0.816562,0.25042 z" id="path1127" inkscape:connector-curvature="0" sodipodi:nodetypes="cscccccscsccscccsscsccscsccccssscccscscccccccscsccccccssccssssscscssccsssccssssscsccscccccscscssccsscscccccccscsccccccccccccccccssccscccccccssscscssssscssccccccccccsccscccccccsccccccccccccccscccccccccscscscccscsccscccccccccsccccssccssccccsccccccccccccsccscccssccccccc"/>
    </g>
  </g>
</svg>
